G04 Layer: TopLayer*
G04 EasyEDA v6.3.22, 2020-03-18T10:30:20--5:00*
G04 98182c42750f413f95cb83c886c9a14c,0f239cf58a554773a8b80eeb1c5c5983,10*
G04 Gerber Generator version 0.2*
G04 Scale: 100 percent, Rotated: No, Reflected: No *
G04 Dimensions in millimeters *
G04 leading zeros omitted , absolute positions ,3 integer and 3 decimal *
%FSLAX33Y33*%
%MOMM*%
G90*
G71D02*

%ADD11C,3.299993*%
%ADD12C,1.999996*%
%ADD13R,1.699997X1.999996*%
%ADD14R,1.999996X1.699997*%
%ADD15R,1.799996X1.999996*%
%ADD16R,1.999996X1.999996*%
%ADD17C,1.299997*%

%LPD*%
G54D11*
G01X3650Y3650D03*
G01X66350Y3650D03*
G01X66350Y56350D03*
G01X3649Y56350D03*
G54D12*
G01X10160Y24440D03*
G01X14859Y21900D03*
G01X18796Y24440D03*
G01X21971Y21900D03*
G01X25379Y28020D03*
G54D13*
G01X22839Y28020D03*
G54D12*
G01X20299Y28020D03*
G01X17759Y28020D03*
G01X15219Y28020D03*
G01X12679Y28020D03*
G01X10139Y28020D03*
G01X7599Y28020D03*
G01X5059Y28020D03*
G01X25379Y2520D03*
G01X22839Y2520D03*
G01X20299Y2520D03*
G01X17759Y2520D03*
G01X15219Y2520D03*
G01X63627Y29520D03*
G54D14*
G01X63627Y26980D03*
G54D12*
G01X63627Y24440D03*
G01X39878Y11740D03*
G01X39878Y14280D03*
G01X39878Y16820D03*
G01X39878Y19360D03*
G01X39878Y21900D03*
G01X39878Y24440D03*
G01X39878Y26980D03*
G01X39878Y29520D03*
G01X39878Y32060D03*
G01X39878Y34600D03*
G54D14*
G01X39878Y37140D03*
G54D12*
G01X39878Y39680D03*
G01X57658Y11740D03*
G01X57658Y14280D03*
G01X57658Y16820D03*
G01X57658Y19360D03*
G01X57658Y21900D03*
G01X57658Y24440D03*
G01X57658Y26980D03*
G01X57658Y29520D03*
G54D15*
G01X57658Y32060D03*
G54D12*
G01X57658Y34600D03*
G01X57658Y37140D03*
G01X57658Y39680D03*
G01X31496Y49205D03*
G54D13*
G01X34036Y49205D03*
G54D12*
G01X63627Y19360D03*
G54D14*
G01X63627Y16820D03*
G54D12*
G01X63627Y14280D03*
G01X63627Y11740D03*
G01X24389Y51706D03*
G54D16*
G01X24389Y37736D03*
G54D12*
G01X24389Y49166D03*
G54D16*
G01X24389Y40276D03*
G54D17*
G01X1529Y52156D02*
G01X1529Y51256D01*
G01X1529Y38186D02*
G01X1529Y37286D01*
M00*
M02*
