G04 Layer: TopSilkLayer*
G04 EasyEDA v6.3.22, 2020-03-18T10:30:20--5:00*
G04 98182c42750f413f95cb83c886c9a14c,0f239cf58a554773a8b80eeb1c5c5983,10*
G04 Gerber Generator version 0.2*
G04 Scale: 100 percent, Rotated: No, Reflected: No *
G04 Dimensions in millimeters *
G04 leading zeros omitted , absolute positions ,3 integer and 3 decimal *
%FSLAX33Y33*%
%MOMM*%
G90*
G71D02*

%ADD10C,0.254000*%
%ADD19C,0.101600*%
%ADD20C,0.152400*%
%ADD21C,0.100000*%
%ADD22C,0.203200*%
%ADD23C,0.050000*%
%ADD24C,0.177800*%

%LPD*%
G54D19*
G01X2931Y1020D02*
G01X26779Y1024D01*
G01X27431Y1020D01*
G01X27431Y29520D01*
G01X2831Y29520D01*
G01X2831Y1020D01*
G01X3879Y1024D02*
G01X3879Y24D01*
G01X10379Y24D01*
G01X10379Y1024D01*
G01X4434Y23D02*
G01X4434Y-10976D01*
G01X9434Y-10976D01*
G01X9434Y23D01*
G01X4434Y-9976D02*
G01X9434Y-9976D01*
G01X4434Y-9376D02*
G01X6934Y-9176D01*
G01X9434Y-8976D01*
G01X4432Y-8878D02*
G01X6932Y-8678D01*
G01X9432Y-8478D01*
G01X4431Y-8378D02*
G01X6931Y-8178D01*
G01X9431Y-7978D01*
G01X4431Y-7879D02*
G01X6931Y-7679D01*
G01X9431Y-7479D01*
G01X4431Y-7379D02*
G01X6931Y-7179D01*
G01X9431Y-6979D01*
G01X4431Y-6878D02*
G01X6931Y-6678D01*
G01X9431Y-6478D01*
G01X4431Y-6379D02*
G01X6931Y-6179D01*
G01X9431Y-5979D01*
G01X4431Y-5878D02*
G01X6931Y-5678D01*
G01X9431Y-5478D01*
G01X4431Y-5378D02*
G01X6931Y-5178D01*
G01X9431Y-4978D01*
G01X4431Y-4880D02*
G01X6931Y-4680D01*
G01X9431Y-4480D01*
G01X4431Y-4379D02*
G01X6931Y-4179D01*
G01X9431Y-3979D01*
G01X4431Y-3879D02*
G01X6931Y-3679D01*
G01X9431Y-3479D01*
G01X4433Y-3376D02*
G01X9434Y-2977D01*
G01X4431Y-2878D02*
G01X6931Y-2678D01*
G01X9431Y-2478D01*
G01X4431Y-2378D02*
G01X6931Y-2178D01*
G01X9431Y-1978D01*
G01X4431Y-1877D02*
G01X6931Y-1677D01*
G01X9431Y-1477D01*
G01X4431Y-1377D02*
G01X6931Y-1177D01*
G01X9431Y-977D01*
G01X4431Y-879D02*
G01X6931Y-679D01*
G01X9431Y-479D01*
G01X4431Y-379D02*
G01X6931Y-179D01*
G01X9431Y20D01*
G01X4433Y-9877D02*
G01X6933Y-9677D01*
G01X9433Y-9477D01*
G54D10*
G01X66675Y30790D02*
G01X61087Y30790D01*
G01X66675Y23170D02*
G01X61087Y23170D01*
G01X66675Y23170D02*
G01X66675Y30790D01*
G01X61087Y23170D02*
G01X61087Y24440D01*
G01X61087Y24440D02*
G01X61087Y29520D01*
G01X61087Y29520D02*
G01X61087Y30790D01*
G01X61087Y29520D02*
G01X62357Y29520D01*
G01X62357Y29520D02*
G01X62357Y24440D01*
G01X62357Y24440D02*
G01X61087Y24440D01*
G54D19*
G01X38608Y43998D02*
G01X38608Y10470D01*
G01X58928Y43998D02*
G01X58928Y10470D01*
G01X38608Y43998D02*
G01X44755Y43998D01*
G01X44754Y43998D02*
G01X44754Y45903D01*
G01X52781Y43998D02*
G01X58928Y43998D01*
G01X44754Y45903D02*
G01X52781Y45903D01*
G01X52781Y45903D02*
G01X52781Y43998D01*
G01X38608Y10470D02*
G01X40132Y7422D01*
G01X58928Y10470D02*
G01X57404Y7422D01*
G01X40132Y7422D02*
G01X57404Y7422D01*
G54D10*
G01X30226Y52253D02*
G01X30226Y46665D01*
G01X35306Y52253D02*
G01X35306Y46665D01*
G01X35306Y52253D02*
G01X30226Y52253D01*
G01X35306Y46665D02*
G01X34036Y46665D01*
G01X34036Y46665D02*
G01X31496Y46665D01*
G01X31496Y46665D02*
G01X30226Y46665D01*
G01X31496Y46665D02*
G01X31496Y47935D01*
G01X31496Y47935D02*
G01X34036Y47935D01*
G01X34036Y47935D02*
G01X34036Y46665D01*
G01X66675Y10470D02*
G01X61087Y10470D01*
G01X62357Y18090D02*
G01X62357Y13010D01*
G01X62357Y13010D02*
G01X61087Y13010D01*
G01X66675Y20630D02*
G01X61087Y20630D01*
G01X61087Y10470D02*
G01X61087Y13010D01*
G01X61087Y18090D02*
G01X62357Y18090D01*
G01X66675Y10470D02*
G01X66675Y20630D01*
G01X61087Y13010D02*
G01X61087Y18090D01*
G01X61087Y18090D02*
G01X61087Y20630D01*
G01X2998Y42455D02*
G01X4395Y42455D01*
G01X2998Y46875D02*
G01X2998Y42455D01*
G01X4395Y46875D02*
G01X2998Y46875D01*
G01X102Y48069D02*
G01X102Y41262D01*
G01X2795Y41262D02*
G01X4395Y41262D01*
G01X4395Y41262D02*
G01X4395Y42455D01*
G01X4395Y48069D02*
G01X4395Y46875D01*
G01X2795Y48069D02*
G01X4395Y48069D01*
G01X-1040Y41668D02*
G01X-608Y41668D01*
G01X-1243Y47459D02*
G01X-1243Y41922D01*
G01X-608Y47662D02*
G01X-989Y47662D01*
G01X-608Y41262D02*
G01X-1192Y40677D01*
G01X-608Y48069D02*
G01X-1192Y48653D01*
G01X102Y41262D02*
G01X-608Y41262D01*
G01X4395Y41262D02*
G01X102Y41262D01*
G01X102Y48069D02*
G01X4395Y48069D01*
G01X-608Y48069D02*
G01X102Y48069D01*
G01X-608Y41668D02*
G01X-608Y41262D01*
G01X-608Y48069D02*
G01X-608Y47662D01*
G01X8Y35994D02*
G01X26932Y35994D01*
G01X26932Y53266D01*
G01X8Y53266D01*
G01X8Y35994D01*
G54D20*
G01X31506Y16058D02*
G01X32286Y16058D01*
G01X32441Y16108D01*
G01X32545Y16212D01*
G01X32599Y16370D01*
G01X32599Y16474D01*
G01X32545Y16629D01*
G01X32441Y16733D01*
G01X32286Y16784D01*
G01X31506Y16784D01*
G01X31768Y17180D02*
G01X31715Y17180D01*
G01X31611Y17231D01*
G01X31560Y17284D01*
G01X31506Y17388D01*
G01X31506Y17594D01*
G01X31560Y17698D01*
G01X31611Y17752D01*
G01X31715Y17802D01*
G01X31819Y17802D01*
G01X31923Y17752D01*
G01X32078Y17648D01*
G01X32599Y17127D01*
G01X32599Y17856D01*
G54D21*
G01X11077Y-2944D02*
G01X10122Y-2578D01*
G01X11077Y-2944D02*
G01X10122Y-3307D01*
G01X10439Y-2715D02*
G01X10439Y-3170D01*
G01X11077Y-3607D02*
G01X10122Y-3607D01*
G01X11077Y-3607D02*
G01X10122Y-4242D01*
G01X11077Y-4242D02*
G01X10122Y-4242D01*
G01X11077Y-4862D02*
G01X10122Y-4862D01*
G01X11077Y-4542D02*
G01X11077Y-5179D01*
G01X11077Y-5479D02*
G01X10122Y-5479D01*
G01X11077Y-5479D02*
G01X11077Y-6071D01*
G01X10622Y-5479D02*
G01X10622Y-5842D01*
G01X10122Y-5479D02*
G01X10122Y-6071D01*
G01X11077Y-6371D02*
G01X10122Y-6371D01*
G01X11077Y-6371D02*
G01X10122Y-7006D01*
G01X11077Y-7006D02*
G01X10122Y-7006D01*
G01X11077Y-7671D02*
G01X10122Y-7305D01*
G01X11077Y-7671D02*
G01X10122Y-8034D01*
G01X10439Y-7442D02*
G01X10439Y-7897D01*
G54D22*
G01X30186Y27720D02*
G01X28245Y27720D01*
G01X28245Y27720D02*
G01X28245Y26612D01*
G01X29538Y25540D02*
G01X29446Y25726D01*
G01X29261Y25911D01*
G01X28984Y26003D01*
G01X28799Y26003D01*
G01X28522Y25911D01*
G01X28339Y25726D01*
G01X28245Y25540D01*
G01X28245Y25264D01*
G01X28339Y25078D01*
G01X28522Y24895D01*
G01X28799Y24801D01*
G01X28984Y24801D01*
G01X29261Y24895D01*
G01X29446Y25078D01*
G01X29538Y25264D01*
G01X29538Y25540D01*
G01X30186Y24192D02*
G01X28245Y24192D01*
G01X30186Y24192D02*
G01X30186Y23361D01*
G01X30094Y23084D01*
G01X30000Y22993D01*
G01X29815Y22899D01*
G01X29632Y22899D01*
G01X29446Y22993D01*
G01X29355Y23084D01*
G01X29261Y23361D01*
G01X29261Y24192D01*
G01X29261Y23547D02*
G01X28245Y22899D01*
G01X29538Y21182D02*
G01X28245Y21182D01*
G01X29261Y21182D02*
G01X29446Y21367D01*
G01X29538Y21550D01*
G01X29538Y21827D01*
G01X29446Y22012D01*
G01X29261Y22198D01*
G01X28984Y22289D01*
G01X28799Y22289D01*
G01X28522Y22198D01*
G01X28339Y22012D01*
G01X28245Y21827D01*
G01X28245Y21550D01*
G01X28339Y21367D01*
G01X28522Y21182D01*
G01X30186Y19150D02*
G01X28245Y19150D01*
G01X30186Y19150D02*
G01X30186Y18319D01*
G01X30094Y18040D01*
G01X30000Y17948D01*
G01X29815Y17857D01*
G01X29632Y17857D01*
G01X29446Y17948D01*
G01X29355Y18040D01*
G01X29261Y18319D01*
G01X29261Y19150D01*
G01X29261Y18502D02*
G01X28245Y17857D01*
G01X29538Y16137D02*
G01X28245Y16137D01*
G01X29261Y16137D02*
G01X29446Y16323D01*
G01X29538Y16508D01*
G01X29538Y16785D01*
G01X29446Y16971D01*
G01X29261Y17153D01*
G01X28984Y17247D01*
G01X28799Y17247D01*
G01X28522Y17153D01*
G01X28339Y16971D01*
G01X28245Y16785D01*
G01X28245Y16508D01*
G01X28339Y16323D01*
G01X28522Y16137D01*
G01X30186Y14420D02*
G01X28245Y14420D01*
G01X29261Y14420D02*
G01X29446Y14606D01*
G01X29538Y14789D01*
G01X29538Y15068D01*
G01X29446Y15251D01*
G01X29261Y15436D01*
G01X28984Y15528D01*
G01X28799Y15528D01*
G01X28522Y15436D01*
G01X28339Y15251D01*
G01X28245Y15068D01*
G01X28245Y14789D01*
G01X28339Y14606D01*
G01X28522Y14420D01*
G01X30186Y13811D02*
G01X30094Y13719D01*
G01X30186Y13625D01*
G01X30277Y13719D01*
G01X30186Y13811D01*
G01X29538Y13719D02*
G01X28245Y13719D01*
G01X29538Y12553D02*
G01X29446Y12739D01*
G01X29261Y12924D01*
G01X28984Y13016D01*
G01X28799Y13016D01*
G01X28522Y12924D01*
G01X28339Y12739D01*
G01X28245Y12553D01*
G01X28245Y12277D01*
G01X28339Y12094D01*
G01X28522Y11908D01*
G01X28799Y11817D01*
G01X28984Y11817D01*
G01X29261Y11908D01*
G01X29446Y12094D01*
G01X29538Y12277D01*
G01X29538Y12553D01*
G01X30186Y9785D02*
G01X28245Y9785D01*
G01X30186Y9785D02*
G01X30186Y8952D01*
G01X30094Y8675D01*
G01X30000Y8583D01*
G01X29815Y8489D01*
G01X29632Y8489D01*
G01X29446Y8583D01*
G01X29355Y8675D01*
G01X29261Y8952D01*
G01X29261Y9785D01*
G01X29261Y9137D02*
G01X28245Y8489D01*
G01X30186Y7880D02*
G01X28245Y7880D01*
G01X30186Y7880D02*
G01X30186Y6681D01*
G01X29261Y7880D02*
G01X29261Y7143D01*
G01X30186Y6071D02*
G01X28245Y6071D01*
G01X30186Y6071D02*
G01X28245Y5332D01*
G01X30186Y4593D02*
G01X28245Y5332D01*
G01X30186Y4593D02*
G01X28245Y4593D01*
G01X29538Y2782D02*
G01X29261Y2876D01*
G01X29078Y3059D01*
G01X28984Y3336D01*
G01X28984Y3430D01*
G01X29078Y3707D01*
G01X29261Y3892D01*
G01X29538Y3983D01*
G01X29632Y3983D01*
G01X29909Y3892D01*
G01X30094Y3707D01*
G01X30186Y3430D01*
G01X30186Y3336D01*
G01X30094Y3059D01*
G01X29909Y2876D01*
G01X29538Y2782D01*
G01X29078Y2782D01*
G01X28616Y2876D01*
G01X28339Y3059D01*
G01X28245Y3336D01*
G01X28245Y3521D01*
G01X28339Y3798D01*
G01X28522Y3892D01*
G01X29538Y2172D02*
G01X28245Y1156D01*
G01X29538Y1156D02*
G01X28245Y2172D01*
G54D23*
G01X3696Y3919D02*
G01X3409Y3919D01*
G01X3559Y3919D02*
G01X3587Y3894D01*
G01X3600Y3866D01*
G01X3600Y3825D01*
G01X3587Y3797D01*
G01X3559Y3769D01*
G01X3518Y3757D01*
G01X3491Y3757D01*
G01X3450Y3769D01*
G01X3422Y3797D01*
G01X3409Y3825D01*
G01X3409Y3866D01*
G01X3422Y3894D01*
G01X3450Y3919D01*
G01X3600Y3652D02*
G01X3409Y3571D01*
G01X3600Y3490D02*
G01X3409Y3571D01*
G01X3353Y3599D01*
G01X3328Y3625D01*
G01X3313Y3652D01*
G01X3313Y3665D01*
G01X3696Y3188D02*
G01X3409Y3188D01*
G01X3696Y3188D02*
G01X3696Y3012D01*
G01X3559Y3188D02*
G01X3559Y3081D01*
G01X3409Y3188D02*
G01X3409Y3012D01*
G01X3600Y2771D02*
G01X3409Y2921D01*
G01X3600Y2921D02*
G01X3600Y2771D01*
G01X3409Y2921D02*
G01X3409Y2771D01*
G01X3696Y2682D02*
G01X3409Y2682D01*
G01X3696Y2682D02*
G01X3696Y2558D01*
G01X3681Y2517D01*
G01X3668Y2504D01*
G01X3640Y2492D01*
G01X3612Y2492D01*
G01X3587Y2504D01*
G01X3572Y2517D01*
G01X3559Y2558D01*
G01X3559Y2682D01*
G01X3559Y2586D02*
G01X3409Y2492D01*
G01X3600Y2332D02*
G01X3587Y2360D01*
G01X3559Y2388D01*
G01X3518Y2400D01*
G01X3491Y2400D01*
G01X3450Y2388D01*
G01X3422Y2360D01*
G01X3409Y2332D01*
G01X3409Y2291D01*
G01X3422Y2263D01*
G01X3450Y2238D01*
G01X3491Y2222D01*
G01X3518Y2222D01*
G01X3559Y2238D01*
G01X3587Y2263D01*
G01X3600Y2291D01*
G01X3600Y2332D01*
G01X3628Y1928D02*
G01X3653Y1943D01*
G01X3681Y1971D01*
G01X3696Y1996D01*
G01X3696Y2052D01*
G01X3681Y2078D01*
G01X3653Y2106D01*
G01X3628Y2121D01*
G01X3587Y2134D01*
G01X3518Y2134D01*
G01X3478Y2121D01*
G01X3450Y2106D01*
G01X3422Y2078D01*
G01X3409Y2052D01*
G01X3409Y1996D01*
G01X3422Y1971D01*
G01X3450Y1943D01*
G01X3478Y1928D01*
G01X3696Y1839D02*
G01X3409Y1839D01*
G01X3544Y1839D02*
G01X3587Y1798D01*
G01X3600Y1770D01*
G01X3600Y1730D01*
G01X3587Y1702D01*
G01X3544Y1689D01*
G01X3409Y1689D01*
G54D21*
G01X23354Y23899D02*
G01X23491Y23965D01*
G01X23626Y24102D01*
G01X23694Y24239D01*
G01X23694Y24511D01*
G01X23626Y24648D01*
G01X23491Y24785D01*
G01X23354Y24851D01*
G01X23151Y24920D01*
G01X22808Y24920D01*
G01X22605Y24851D01*
G01X22468Y24785D01*
G01X22330Y24648D01*
G01X22264Y24511D01*
G01X22264Y24239D01*
G01X22330Y24102D01*
G01X22468Y23965D01*
G01X22605Y23899D01*
G01X22808Y23899D01*
G01X22808Y24239D02*
G01X22808Y23899D01*
G01X23694Y23447D02*
G01X22264Y23447D01*
G01X23694Y23447D02*
G01X22264Y22494D01*
G01X23694Y22494D02*
G01X22264Y22494D01*
G01X23694Y22042D02*
G01X22264Y22042D01*
G01X23694Y22042D02*
G01X23694Y21567D01*
G01X23626Y21361D01*
G01X23491Y21224D01*
G01X23354Y21156D01*
G01X23151Y21090D01*
G01X22808Y21090D01*
G01X22605Y21156D01*
G01X22468Y21224D01*
G01X22330Y21361D01*
G01X22264Y21567D01*
G01X22264Y22042D01*
G01X21192Y24824D02*
G01X19762Y24824D01*
G01X21192Y24824D02*
G01X21192Y23937D01*
G01X20512Y24824D02*
G01X20512Y24277D01*
G01X19762Y24824D02*
G01X19762Y23937D01*
G01X21192Y23485D02*
G01X19762Y23485D01*
G01X21192Y23485D02*
G01X19762Y22532D01*
G01X21192Y22532D02*
G01X19762Y22532D01*
G01X18254Y23896D02*
G01X18388Y23965D01*
G01X18525Y24102D01*
G01X18594Y24239D01*
G01X18594Y24511D01*
G01X18525Y24648D01*
G01X18388Y24783D01*
G01X18254Y24851D01*
G01X18048Y24920D01*
G01X17708Y24920D01*
G01X17502Y24851D01*
G01X17367Y24783D01*
G01X17230Y24648D01*
G01X17161Y24511D01*
G01X17161Y24239D01*
G01X17230Y24102D01*
G01X17367Y23965D01*
G01X17502Y23896D01*
G01X17708Y23896D01*
G01X17708Y24239D02*
G01X17708Y23896D01*
G01X18594Y23038D02*
G01X18525Y23244D01*
G01X18320Y23378D01*
G01X17979Y23447D01*
G01X17776Y23447D01*
G01X17433Y23378D01*
G01X17230Y23244D01*
G01X17161Y23038D01*
G01X17161Y22903D01*
G01X17230Y22698D01*
G01X17433Y22560D01*
G01X17776Y22494D01*
G01X17979Y22494D01*
G01X18320Y22560D01*
G01X18525Y22698D01*
G01X18594Y22903D01*
G01X18594Y23038D01*
G01X15891Y23968D02*
G01X16026Y24102D01*
G01X16095Y24308D01*
G01X16095Y24580D01*
G01X16026Y24785D01*
G01X15891Y24920D01*
G01X15754Y24920D01*
G01X15617Y24851D01*
G01X15549Y24785D01*
G01X15483Y24648D01*
G01X15345Y24239D01*
G01X15277Y24102D01*
G01X15208Y24034D01*
G01X15074Y23968D01*
G01X14868Y23968D01*
G01X14731Y24102D01*
G01X14665Y24308D01*
G01X14665Y24580D01*
G01X14731Y24785D01*
G01X14868Y24920D01*
G01X15754Y22494D02*
G01X15891Y22563D01*
G01X16026Y22698D01*
G01X16095Y22835D01*
G01X16095Y23106D01*
G01X16026Y23244D01*
G01X15891Y23381D01*
G01X15754Y23449D01*
G01X15549Y23515D01*
G01X15208Y23515D01*
G01X15005Y23449D01*
G01X14868Y23381D01*
G01X14731Y23244D01*
G01X14665Y23106D01*
G01X14665Y22835D01*
G01X14731Y22698D01*
G01X14868Y22563D01*
G01X15005Y22494D01*
G01X16095Y22045D02*
G01X14665Y22045D01*
G01X16095Y21090D02*
G01X15140Y22045D01*
G01X15483Y21702D02*
G01X14665Y21090D01*
G01X13593Y24920D02*
G01X12163Y24920D01*
G01X13593Y24920D02*
G01X12163Y24374D01*
G01X13593Y23830D02*
G01X12163Y24374D01*
G01X13593Y23830D02*
G01X12163Y23830D01*
G01X13593Y23381D02*
G01X12163Y23381D01*
G01X13390Y21976D02*
G01X13524Y22111D01*
G01X13593Y22317D01*
G01X13593Y22588D01*
G01X13524Y22794D01*
G01X13390Y22929D01*
G01X13252Y22929D01*
G01X13115Y22863D01*
G01X13047Y22794D01*
G01X12981Y22657D01*
G01X12843Y22248D01*
G01X12775Y22111D01*
G01X12706Y22042D01*
G01X12572Y21976D01*
G01X12366Y21976D01*
G01X12229Y22111D01*
G01X12163Y22317D01*
G01X12163Y22588D01*
G01X12229Y22794D01*
G01X12366Y22929D01*
G01X13593Y21115D02*
G01X13524Y21252D01*
G01X13390Y21389D01*
G01X13252Y21458D01*
G01X13047Y21524D01*
G01X12706Y21524D01*
G01X12503Y21458D01*
G01X12366Y21389D01*
G01X12229Y21252D01*
G01X12163Y21115D01*
G01X12163Y20843D01*
G01X12229Y20706D01*
G01X12366Y20572D01*
G01X12503Y20503D01*
G01X12706Y20434D01*
G01X13047Y20434D01*
G01X13252Y20503D01*
G01X13390Y20572D01*
G01X13524Y20706D01*
G01X13593Y20843D01*
G01X13593Y21115D01*
G01X11195Y24920D02*
G01X9762Y24920D01*
G01X11195Y24920D02*
G01X9762Y24376D01*
G01X11195Y23830D02*
G01X9762Y24376D01*
G01X11195Y23830D02*
G01X9762Y23830D01*
G01X11195Y22972D02*
G01X11126Y23106D01*
G01X10989Y23244D01*
G01X10855Y23312D01*
G01X10649Y23381D01*
G01X10309Y23381D01*
G01X10103Y23312D01*
G01X9968Y23244D01*
G01X9831Y23106D01*
G01X9762Y22972D01*
G01X9762Y22698D01*
G01X9831Y22563D01*
G01X9968Y22426D01*
G01X10103Y22357D01*
G01X10309Y22289D01*
G01X10649Y22289D01*
G01X10855Y22357D01*
G01X10989Y22426D01*
G01X11126Y22563D01*
G01X11195Y22698D01*
G01X11195Y22972D01*
G01X10989Y20884D02*
G01X11126Y21021D01*
G01X11195Y21227D01*
G01X11195Y21499D01*
G01X11126Y21702D01*
G01X10989Y21839D01*
G01X10855Y21839D01*
G01X10718Y21770D01*
G01X10649Y21702D01*
G01X10580Y21567D01*
G01X10446Y21158D01*
G01X10377Y21021D01*
G01X10309Y20953D01*
G01X10171Y20884D01*
G01X9968Y20884D01*
G01X9831Y21021D01*
G01X9762Y21227D01*
G01X9762Y21499D01*
G01X9831Y21702D01*
G01X9968Y21839D01*
G01X11195Y20434D02*
G01X9762Y20434D01*
G01X8355Y23899D02*
G01X8490Y23965D01*
G01X8627Y24102D01*
G01X8696Y24239D01*
G01X8696Y24511D01*
G01X8627Y24648D01*
G01X8490Y24785D01*
G01X8355Y24851D01*
G01X8150Y24920D01*
G01X7809Y24920D01*
G01X7603Y24851D01*
G01X7469Y24785D01*
G01X7332Y24648D01*
G01X7263Y24511D01*
G01X7263Y24239D01*
G01X7332Y24102D01*
G01X7469Y23965D01*
G01X7603Y23899D01*
G01X8490Y22494D02*
G01X8627Y22629D01*
G01X8696Y22835D01*
G01X8696Y23106D01*
G01X8627Y23312D01*
G01X8490Y23447D01*
G01X8355Y23447D01*
G01X8218Y23381D01*
G01X8150Y23312D01*
G01X8081Y23175D01*
G01X7946Y22766D01*
G01X7878Y22629D01*
G01X7809Y22560D01*
G01X7672Y22494D01*
G01X7469Y22494D01*
G01X7332Y22629D01*
G01X7263Y22835D01*
G01X7263Y23106D01*
G01X7332Y23312D01*
G01X7469Y23447D01*
G01X6194Y24920D02*
G01X4761Y24920D01*
G01X6194Y24920D02*
G01X6194Y24308D01*
G01X6125Y24102D01*
G01X6057Y24034D01*
G01X5919Y23968D01*
G01X5785Y23968D01*
G01X5648Y24034D01*
G01X5579Y24102D01*
G01X5511Y24308D01*
G01X5511Y24920D01*
G01X5511Y24445D02*
G01X4761Y23968D01*
G01X5988Y22563D02*
G01X6125Y22698D01*
G01X6194Y22903D01*
G01X6194Y23175D01*
G01X6125Y23381D01*
G01X5988Y23515D01*
G01X5853Y23515D01*
G01X5716Y23449D01*
G01X5648Y23381D01*
G01X5579Y23244D01*
G01X5444Y22835D01*
G01X5376Y22698D01*
G01X5307Y22629D01*
G01X5170Y22563D01*
G01X4967Y22563D01*
G01X4830Y22698D01*
G01X4761Y22903D01*
G01X4761Y23175D01*
G01X4830Y23381D01*
G01X4967Y23515D01*
G01X6194Y21636D02*
G01X4761Y21636D01*
G01X6194Y22111D02*
G01X6194Y21158D01*
G01X25655Y5997D02*
G01X25790Y6066D01*
G01X25927Y6203D01*
G01X25996Y6340D01*
G01X25996Y6612D01*
G01X25927Y6749D01*
G01X25790Y6883D01*
G01X25655Y6952D01*
G01X25450Y7021D01*
G01X25109Y7021D01*
G01X24903Y6952D01*
G01X24769Y6883D01*
G01X24632Y6749D01*
G01X24563Y6612D01*
G01X24563Y6340D01*
G01X24632Y6203D01*
G01X24769Y6066D01*
G01X24903Y5997D01*
G01X25109Y5997D01*
G01X25109Y6340D02*
G01X25109Y5997D01*
G01X25721Y5547D02*
G01X25790Y5413D01*
G01X25996Y5207D01*
G01X24563Y5207D01*
G01X23255Y5997D02*
G01X23390Y6066D01*
G01X23527Y6203D01*
G01X23595Y6340D01*
G01X23595Y6612D01*
G01X23527Y6749D01*
G01X23390Y6883D01*
G01X23255Y6952D01*
G01X23049Y7021D01*
G01X22709Y7021D01*
G01X22503Y6952D01*
G01X22368Y6883D01*
G01X22231Y6749D01*
G01X22163Y6612D01*
G01X22163Y6340D01*
G01X22231Y6203D01*
G01X22368Y6066D01*
G01X22503Y5997D01*
G01X22709Y5997D01*
G01X22709Y6340D02*
G01X22709Y5997D01*
G01X23255Y5479D02*
G01X23324Y5479D01*
G01X23458Y5413D01*
G01X23527Y5344D01*
G01X23595Y5207D01*
G01X23595Y4935D01*
G01X23527Y4798D01*
G01X23458Y4730D01*
G01X23324Y4661D01*
G01X23186Y4661D01*
G01X23049Y4730D01*
G01X22846Y4867D01*
G01X22163Y5547D01*
G01X22163Y4592D01*
G01X20753Y5997D02*
G01X20890Y6066D01*
G01X21027Y6203D01*
G01X21096Y6340D01*
G01X21096Y6612D01*
G01X21027Y6749D01*
G01X20890Y6883D01*
G01X20753Y6952D01*
G01X20550Y7021D01*
G01X20209Y7021D01*
G01X20004Y6952D01*
G01X19869Y6883D01*
G01X19732Y6749D01*
G01X19663Y6612D01*
G01X19663Y6340D01*
G01X19732Y6203D01*
G01X19869Y6066D01*
G01X20004Y5997D01*
G01X20209Y5997D01*
G01X20209Y6340D02*
G01X20209Y5997D01*
G01X21096Y5413D02*
G01X21096Y4661D01*
G01X20550Y5070D01*
G01X20550Y4867D01*
G01X20481Y4730D01*
G01X20413Y4661D01*
G01X20209Y4592D01*
G01X20072Y4592D01*
G01X19869Y4661D01*
G01X19732Y4798D01*
G01X19663Y5001D01*
G01X19663Y5207D01*
G01X19732Y5413D01*
G01X19801Y5479D01*
G01X19935Y5547D01*
G01X18254Y5997D02*
G01X18391Y6066D01*
G01X18528Y6203D01*
G01X18594Y6340D01*
G01X18594Y6612D01*
G01X18528Y6749D01*
G01X18391Y6883D01*
G01X18254Y6952D01*
G01X18050Y7021D01*
G01X17708Y7021D01*
G01X17504Y6952D01*
G01X17367Y6883D01*
G01X17233Y6749D01*
G01X17164Y6612D01*
G01X17164Y6340D01*
G01X17233Y6203D01*
G01X17367Y6066D01*
G01X17504Y5997D01*
G01X17708Y5997D01*
G01X17708Y6340D02*
G01X17708Y5997D01*
G01X18594Y4867D02*
G01X17642Y5547D01*
G01X17642Y4526D01*
G01X18594Y4867D02*
G01X17164Y4867D01*
G01X15754Y5997D02*
G01X15891Y6066D01*
G01X16026Y6203D01*
G01X16095Y6340D01*
G01X16095Y6612D01*
G01X16026Y6749D01*
G01X15891Y6883D01*
G01X15754Y6952D01*
G01X15549Y7021D01*
G01X15208Y7021D01*
G01X15005Y6952D01*
G01X14868Y6883D01*
G01X14731Y6749D01*
G01X14662Y6612D01*
G01X14662Y6340D01*
G01X14731Y6203D01*
G01X14868Y6066D01*
G01X15005Y5997D01*
G01X15208Y5997D01*
G01X15208Y6340D02*
G01X15208Y5997D01*
G01X16095Y4730D02*
G01X16095Y5413D01*
G01X15483Y5479D01*
G01X15549Y5413D01*
G01X15617Y5207D01*
G01X15617Y5001D01*
G01X15549Y4798D01*
G01X15414Y4661D01*
G01X15208Y4592D01*
G01X15074Y4592D01*
G01X14868Y4661D01*
G01X14731Y4798D01*
G01X14662Y5001D01*
G01X14662Y5207D01*
G01X14731Y5413D01*
G01X14799Y5479D01*
G01X14936Y5547D01*
G01X26196Y24920D02*
G01X24764Y24374D01*
G01X26196Y23830D02*
G01X24764Y24374D01*
G01X26196Y23381D02*
G01X24764Y23381D01*
G01X26196Y22929D02*
G01X24764Y22929D01*
G01X26196Y22929D02*
G01X24764Y21976D01*
G01X26196Y21976D02*
G01X24764Y21976D01*
G54D20*
G01X59616Y25836D02*
G01X60393Y25836D01*
G01X60551Y25887D01*
G01X60655Y25991D01*
G01X60706Y26148D01*
G01X60706Y26253D01*
G01X60655Y26407D01*
G01X60551Y26512D01*
G01X60393Y26562D01*
G01X59616Y26562D01*
G01X59616Y27009D02*
G01X59616Y27581D01*
G01X60030Y27271D01*
G01X60030Y27426D01*
G01X60083Y27530D01*
G01X60134Y27581D01*
G01X60289Y27634D01*
G01X60393Y27634D01*
G01X60551Y27581D01*
G01X60655Y27477D01*
G01X60706Y27322D01*
G01X60706Y27167D01*
G01X60655Y27009D01*
G01X60602Y26959D01*
G01X60497Y26905D01*
G01X48768Y50472D02*
G01X48768Y49695D01*
G01X48818Y49537D01*
G01X48922Y49433D01*
G01X49080Y49382D01*
G01X49184Y49382D01*
G01X49339Y49433D01*
G01X49443Y49537D01*
G01X49494Y49695D01*
G01X49494Y50472D01*
G01X50358Y50472D02*
G01X49837Y49746D01*
G01X50617Y49746D01*
G01X50358Y50472D02*
G01X50358Y49382D01*
G54D22*
G01X44069Y48189D02*
G01X44069Y46471D01*
G01X44069Y48189D02*
G01X44805Y48189D01*
G01X45049Y48107D01*
G01X45130Y48026D01*
G01X45214Y47861D01*
G01X45214Y47617D01*
G01X45130Y47452D01*
G01X45049Y47371D01*
G01X44805Y47289D01*
G01X44069Y47289D01*
G01X45753Y48189D02*
G01X45753Y46471D01*
G01X46898Y48189D02*
G01X46898Y46471D01*
G01X45753Y47371D02*
G01X46898Y47371D01*
G01X47929Y48189D02*
G01X47767Y48107D01*
G01X47602Y47945D01*
G01X47520Y47780D01*
G01X47439Y47536D01*
G01X47439Y47124D01*
G01X47520Y46880D01*
G01X47602Y46715D01*
G01X47767Y46553D01*
G01X47929Y46471D01*
G01X48257Y46471D01*
G01X48420Y46553D01*
G01X48585Y46715D01*
G01X48666Y46880D01*
G01X48747Y47124D01*
G01X48747Y47536D01*
G01X48666Y47780D01*
G01X48585Y47945D01*
G01X48420Y48107D01*
G01X48257Y48189D01*
G01X47929Y48189D01*
G01X49860Y48189D02*
G01X49860Y46471D01*
G01X49288Y48189D02*
G01X50434Y48189D01*
G01X51465Y48189D02*
G01X51300Y48107D01*
G01X51137Y47945D01*
G01X51056Y47780D01*
G01X50972Y47536D01*
G01X50972Y47124D01*
G01X51056Y46880D01*
G01X51137Y46715D01*
G01X51300Y46553D01*
G01X51465Y46471D01*
G01X51793Y46471D01*
G01X51955Y46553D01*
G01X52118Y46715D01*
G01X52202Y46880D01*
G01X52283Y47124D01*
G01X52283Y47536D01*
G01X52202Y47780D01*
G01X52118Y47945D01*
G01X51955Y48107D01*
G01X51793Y48189D01*
G01X51465Y48189D01*
G01X52821Y48189D02*
G01X52821Y46471D01*
G01X52821Y48189D02*
G01X53967Y46471D01*
G01X53967Y48189D02*
G01X53967Y46471D01*
G54D21*
G01X41148Y40314D02*
G01X41694Y38884D01*
G01X42240Y40314D02*
G01X41694Y38884D01*
G01X42689Y40314D02*
G01X42689Y38884D01*
G01X43139Y40314D02*
G01X43139Y38884D01*
G01X43139Y40314D02*
G01X44094Y38884D01*
G01X44094Y40314D02*
G01X44094Y38884D01*
G01X53975Y30282D02*
G01X53975Y28852D01*
G01X53975Y30282D02*
G01X54452Y30282D01*
G01X54658Y30215D01*
G01X54792Y30078D01*
G01X54861Y29941D01*
G01X54930Y29738D01*
G01X54930Y29395D01*
G01X54861Y29192D01*
G01X54792Y29055D01*
G01X54658Y28920D01*
G01X54452Y28852D01*
G01X53975Y28852D01*
G01X56334Y30282D02*
G01X55651Y28852D01*
G01X55379Y30282D02*
G01X56334Y30282D01*
G01X53975Y27742D02*
G01X53975Y26309D01*
G01X53975Y27742D02*
G01X54449Y27742D01*
G01X54655Y27673D01*
G01X54792Y27536D01*
G01X54858Y27401D01*
G01X54927Y27195D01*
G01X54927Y26855D01*
G01X54858Y26649D01*
G01X54792Y26515D01*
G01X54655Y26378D01*
G01X54449Y26309D01*
G01X53975Y26309D01*
G01X56197Y27536D02*
G01X56128Y27673D01*
G01X55923Y27742D01*
G01X55788Y27742D01*
G01X55582Y27673D01*
G01X55445Y27467D01*
G01X55377Y27127D01*
G01X55377Y26786D01*
G01X55445Y26515D01*
G01X55582Y26378D01*
G01X55788Y26309D01*
G01X55854Y26309D01*
G01X56060Y26378D01*
G01X56197Y26515D01*
G01X56263Y26718D01*
G01X56263Y26786D01*
G01X56197Y26992D01*
G01X56060Y27127D01*
G01X55854Y27195D01*
G01X55788Y27195D01*
G01X55582Y27127D01*
G01X55445Y26992D01*
G01X55377Y26786D01*
G01X53975Y25202D02*
G01X53975Y23769D01*
G01X53975Y25202D02*
G01X54452Y25202D01*
G01X54658Y25133D01*
G01X54792Y24996D01*
G01X54861Y24861D01*
G01X54930Y24655D01*
G01X54930Y24315D01*
G01X54861Y24109D01*
G01X54792Y23975D01*
G01X54658Y23838D01*
G01X54452Y23769D01*
G01X53975Y23769D01*
G01X56197Y25202D02*
G01X55516Y25202D01*
G01X55448Y24587D01*
G01X55516Y24655D01*
G01X55719Y24724D01*
G01X55925Y24724D01*
G01X56128Y24655D01*
G01X56266Y24518D01*
G01X56334Y24315D01*
G01X56334Y24178D01*
G01X56266Y23975D01*
G01X56128Y23838D01*
G01X55925Y23769D01*
G01X55719Y23769D01*
G01X55516Y23838D01*
G01X55448Y23906D01*
G01X55379Y24041D01*
G01X53848Y22662D02*
G01X53848Y21232D01*
G01X53848Y22662D02*
G01X54325Y22662D01*
G01X54531Y22595D01*
G01X54665Y22458D01*
G01X54734Y22321D01*
G01X54803Y22118D01*
G01X54803Y21775D01*
G01X54734Y21572D01*
G01X54665Y21435D01*
G01X54531Y21300D01*
G01X54325Y21232D01*
G01X53848Y21232D01*
G01X55933Y22662D02*
G01X55252Y21709D01*
G01X56276Y21709D01*
G01X55933Y22662D02*
G01X55933Y21232D01*
G01X53975Y20122D02*
G01X53975Y18689D01*
G01X53975Y20122D02*
G01X54452Y20122D01*
G01X54658Y20053D01*
G01X54792Y19916D01*
G01X54861Y19779D01*
G01X54930Y19575D01*
G01X54930Y19235D01*
G01X54861Y19029D01*
G01X54792Y18895D01*
G01X54658Y18758D01*
G01X54452Y18689D01*
G01X53975Y18689D01*
G01X55516Y20122D02*
G01X56266Y20122D01*
G01X55857Y19575D01*
G01X56062Y19575D01*
G01X56197Y19507D01*
G01X56266Y19438D01*
G01X56334Y19235D01*
G01X56334Y19098D01*
G01X56266Y18895D01*
G01X56128Y18758D01*
G01X55925Y18689D01*
G01X55720Y18689D01*
G01X55516Y18758D01*
G01X55448Y18826D01*
G01X55379Y18961D01*
G01X53975Y17582D02*
G01X53975Y16151D01*
G01X53975Y17582D02*
G01X54452Y17582D01*
G01X54655Y17513D01*
G01X54792Y17378D01*
G01X54861Y17241D01*
G01X54930Y17035D01*
G01X54930Y16695D01*
G01X54861Y16492D01*
G01X54792Y16355D01*
G01X54655Y16218D01*
G01X54452Y16151D01*
G01X53975Y16151D01*
G01X55448Y17241D02*
G01X55448Y17310D01*
G01X55516Y17447D01*
G01X55582Y17513D01*
G01X55719Y17582D01*
G01X55991Y17582D01*
G01X56128Y17513D01*
G01X56197Y17447D01*
G01X56266Y17310D01*
G01X56266Y17173D01*
G01X56197Y17035D01*
G01X56060Y16832D01*
G01X55379Y16151D01*
G01X56334Y16151D01*
G01X54483Y15041D02*
G01X54483Y13609D01*
G01X54483Y15041D02*
G01X54960Y15041D01*
G01X55166Y14973D01*
G01X55300Y14838D01*
G01X55369Y14701D01*
G01X55438Y14495D01*
G01X55438Y14155D01*
G01X55369Y13952D01*
G01X55300Y13815D01*
G01X55166Y13678D01*
G01X54960Y13609D01*
G01X54483Y13609D01*
G01X55887Y14770D02*
G01X56024Y14838D01*
G01X56227Y15041D01*
G01X56227Y13609D01*
G01X53975Y12502D02*
G01X53975Y11069D01*
G01X53975Y12502D02*
G01X54452Y12502D01*
G01X54655Y12433D01*
G01X54792Y12296D01*
G01X54861Y12159D01*
G01X54930Y11955D01*
G01X54930Y11615D01*
G01X54861Y11409D01*
G01X54792Y11272D01*
G01X54655Y11138D01*
G01X54452Y11069D01*
G01X53975Y11069D01*
G01X55788Y12502D02*
G01X55582Y12433D01*
G01X55448Y12227D01*
G01X55379Y11887D01*
G01X55379Y11684D01*
G01X55448Y11341D01*
G01X55582Y11138D01*
G01X55788Y11069D01*
G01X55925Y11069D01*
G01X56128Y11138D01*
G01X56266Y11341D01*
G01X56334Y11684D01*
G01X56334Y11887D01*
G01X56266Y12227D01*
G01X56128Y12433D01*
G01X55925Y12502D01*
G01X55788Y12502D01*
G01X42169Y37434D02*
G01X42100Y37571D01*
G01X41965Y37706D01*
G01X41828Y37775D01*
G01X41556Y37775D01*
G01X41419Y37706D01*
G01X41282Y37571D01*
G01X41214Y37434D01*
G01X41148Y37228D01*
G01X41148Y36888D01*
G01X41214Y36685D01*
G01X41282Y36548D01*
G01X41419Y36411D01*
G01X41556Y36345D01*
G01X41828Y36345D01*
G01X41965Y36411D01*
G01X42100Y36548D01*
G01X42169Y36685D01*
G01X42169Y36888D01*
G01X41828Y36888D02*
G01X42169Y36888D01*
G01X42618Y37775D02*
G01X42618Y36345D01*
G01X42618Y37775D02*
G01X43573Y36345D01*
G01X43573Y37775D02*
G01X43573Y36345D01*
G01X44023Y37775D02*
G01X44023Y36345D01*
G01X44023Y37775D02*
G01X44500Y37775D01*
G01X44706Y37706D01*
G01X44841Y37571D01*
G01X44909Y37434D01*
G01X44978Y37228D01*
G01X44978Y36888D01*
G01X44909Y36685D01*
G01X44841Y36548D01*
G01X44706Y36411D01*
G01X44500Y36345D01*
G01X44023Y36345D01*
G01X41498Y35235D02*
G01X41498Y33805D01*
G01X41021Y35235D02*
G01X41973Y35235D01*
G01X42425Y35235D02*
G01X43378Y33805D01*
G01X43378Y35235D02*
G01X42425Y33805D01*
G01X41148Y32695D02*
G01X41148Y31262D01*
G01X41148Y32695D02*
G01X41762Y32695D01*
G01X41965Y32626D01*
G01X42034Y32557D01*
G01X42103Y32423D01*
G01X42103Y32286D01*
G01X42034Y32148D01*
G01X41965Y32080D01*
G01X41762Y32014D01*
G01X41148Y32014D01*
G01X41625Y32014D02*
G01X42103Y31262D01*
G01X42552Y32695D02*
G01X43507Y31262D01*
G01X43507Y32695D02*
G01X42552Y31262D01*
G01X41148Y30155D02*
G01X41488Y28722D01*
G01X41831Y30155D02*
G01X41488Y28722D01*
G01X41831Y30155D02*
G01X42171Y28722D01*
G01X42511Y30155D02*
G01X42171Y28722D01*
G01X42961Y30155D02*
G01X42961Y28722D01*
G01X43916Y30155D02*
G01X42961Y29199D01*
G01X43304Y29540D02*
G01X43916Y28722D01*
G01X44366Y30155D02*
G01X44366Y28722D01*
G01X44366Y30155D02*
G01X44980Y30155D01*
G01X45184Y30086D01*
G01X45252Y30017D01*
G01X45321Y29880D01*
G01X45321Y29677D01*
G01X45252Y29540D01*
G01X45184Y29471D01*
G01X44980Y29403D01*
G01X44366Y29403D01*
G01X41148Y27614D02*
G01X41148Y26184D01*
G01X41148Y27614D02*
G01X41625Y27614D01*
G01X41831Y27546D01*
G01X41965Y27411D01*
G01X42034Y27274D01*
G01X42103Y27068D01*
G01X42103Y26728D01*
G01X42034Y26525D01*
G01X41965Y26388D01*
G01X41831Y26251D01*
G01X41625Y26184D01*
G01X41148Y26184D01*
G01X43098Y27614D02*
G01X42552Y26184D01*
G01X43098Y27614D02*
G01X43644Y26184D01*
G01X42758Y26659D02*
G01X43439Y26659D01*
G01X45118Y27274D02*
G01X45049Y27411D01*
G01X44912Y27546D01*
G01X44775Y27614D01*
G01X44503Y27614D01*
G01X44366Y27546D01*
G01X44231Y27411D01*
G01X44163Y27274D01*
G01X44094Y27068D01*
G01X44094Y26728D01*
G01X44163Y26525D01*
G01X44231Y26388D01*
G01X44366Y26251D01*
G01X44503Y26184D01*
G01X44775Y26184D01*
G01X44912Y26251D01*
G01X45049Y26388D01*
G01X45118Y26525D01*
G01X41691Y25075D02*
G01X41148Y23645D01*
G01X41691Y25075D02*
G01X42237Y23645D01*
G01X41351Y24122D02*
G01X42031Y24122D01*
G01X43505Y25075D02*
G01X42824Y25075D01*
G01X42755Y24462D01*
G01X42824Y24531D01*
G01X43027Y24600D01*
G01X43233Y24600D01*
G01X43436Y24531D01*
G01X43573Y24394D01*
G01X43642Y24188D01*
G01X43642Y24053D01*
G01X43573Y23848D01*
G01X43436Y23713D01*
G01X43233Y23645D01*
G01X43027Y23645D01*
G01X42824Y23713D01*
G01X42755Y23779D01*
G01X42687Y23916D01*
G01X41693Y22591D02*
G01X41146Y21158D01*
G01X41693Y22591D02*
G01X42239Y21158D01*
G01X41352Y21636D02*
G01X42033Y21636D01*
G01X43369Y22591D02*
G01X42688Y21636D01*
G01X43712Y21636D01*
G01X43369Y22591D02*
G01X43369Y21158D01*
G01X41692Y20051D02*
G01X41149Y18618D01*
G01X41692Y20051D02*
G01X42238Y18618D01*
G01X41352Y19096D02*
G01X42035Y19096D01*
G01X42825Y20051D02*
G01X43574Y20051D01*
G01X43165Y19505D01*
G01X43371Y19505D01*
G01X43506Y19436D01*
G01X43574Y19370D01*
G01X43643Y19164D01*
G01X43643Y19027D01*
G01X43574Y18824D01*
G01X43440Y18687D01*
G01X43234Y18618D01*
G01X43028Y18618D01*
G01X42825Y18687D01*
G01X42756Y18755D01*
G01X42688Y18893D01*
G01X41691Y17582D02*
G01X41148Y16149D01*
G01X41691Y17582D02*
G01X42237Y16149D01*
G01X41351Y16626D02*
G01X42034Y16626D01*
G01X42755Y17239D02*
G01X42755Y17307D01*
G01X42824Y17444D01*
G01X42893Y17513D01*
G01X43030Y17582D01*
G01X43301Y17582D01*
G01X43439Y17513D01*
G01X43505Y17444D01*
G01X43573Y17307D01*
G01X43573Y17170D01*
G01X43505Y17035D01*
G01X43370Y16830D01*
G01X42687Y16149D01*
G01X43642Y16149D01*
G01X41691Y15042D02*
G01X41148Y13609D01*
G01X41691Y15042D02*
G01X42237Y13609D01*
G01X41351Y14086D02*
G01X42034Y14086D01*
G01X42687Y14767D02*
G01X42824Y14836D01*
G01X43030Y15042D01*
G01X43030Y13609D01*
G01X41694Y12502D02*
G01X41148Y11069D01*
G01X41694Y12502D02*
G01X42240Y11069D01*
G01X41353Y11546D02*
G01X42034Y11546D01*
G01X43098Y12502D02*
G01X42893Y12433D01*
G01X42758Y12230D01*
G01X42689Y11889D01*
G01X42689Y11684D01*
G01X42758Y11343D01*
G01X42893Y11138D01*
G01X43098Y11069D01*
G01X43233Y11069D01*
G01X43439Y11138D01*
G01X43576Y11343D01*
G01X43644Y11684D01*
G01X43644Y11889D01*
G01X43576Y12230D01*
G01X43439Y12433D01*
G01X43233Y12502D01*
G01X43098Y12502D01*
G01X52585Y40441D02*
G01X53334Y40441D01*
G01X52926Y39895D01*
G01X53131Y39895D01*
G01X53268Y39829D01*
G01X53334Y39761D01*
G01X53403Y39555D01*
G01X53403Y39418D01*
G01X53334Y39215D01*
G01X53200Y39078D01*
G01X52994Y39009D01*
G01X52791Y39009D01*
G01X52585Y39078D01*
G01X52517Y39146D01*
G01X52451Y39283D01*
G01X53853Y40441D02*
G01X54399Y39009D01*
G01X54945Y40441D02*
G01X54399Y39009D01*
G01X55532Y40441D02*
G01X56281Y40441D01*
G01X55872Y39895D01*
G01X56078Y39895D01*
G01X56212Y39829D01*
G01X56281Y39761D01*
G01X56349Y39555D01*
G01X56349Y39418D01*
G01X56281Y39215D01*
G01X56144Y39078D01*
G01X55940Y39009D01*
G01X55735Y39009D01*
G01X55532Y39078D01*
G01X55463Y39146D01*
G01X55394Y39283D01*
G01X52578Y37902D02*
G01X52578Y36472D01*
G01X52578Y37902D02*
G01X53192Y37902D01*
G01X53395Y37835D01*
G01X53464Y37767D01*
G01X53533Y37630D01*
G01X53533Y37493D01*
G01X53464Y37358D01*
G01X53395Y37289D01*
G01X53192Y37221D01*
G01X52578Y37221D01*
G01X53055Y37221D02*
G01X53533Y36472D01*
G01X54937Y37698D02*
G01X54800Y37835D01*
G01X54597Y37902D01*
G01X54323Y37902D01*
G01X54119Y37835D01*
G01X53982Y37698D01*
G01X53982Y37561D01*
G01X54051Y37424D01*
G01X54119Y37358D01*
G01X54256Y37289D01*
G01X54665Y37152D01*
G01X54800Y37084D01*
G01X54869Y37015D01*
G01X54937Y36880D01*
G01X54937Y36675D01*
G01X54800Y36540D01*
G01X54597Y36472D01*
G01X54323Y36472D01*
G01X54119Y36540D01*
G01X53982Y36675D01*
G01X55864Y37902D02*
G01X55864Y36472D01*
G01X55387Y37902D02*
G01X56342Y37902D01*
G01X50927Y35361D02*
G01X51473Y33931D01*
G01X52019Y35361D02*
G01X51473Y33931D01*
G01X52468Y35361D02*
G01X52468Y33931D01*
G01X52468Y35361D02*
G01X53080Y35361D01*
G01X53286Y35295D01*
G01X53355Y35227D01*
G01X53423Y35090D01*
G01X53423Y34953D01*
G01X53355Y34818D01*
G01X53286Y34749D01*
G01X53080Y34681D01*
G01X52468Y34681D02*
G01X53080Y34681D01*
G01X53286Y34612D01*
G01X53355Y34544D01*
G01X53423Y34409D01*
G01X53423Y34203D01*
G01X53355Y34066D01*
G01X53286Y34000D01*
G01X53080Y33931D01*
G01X52468Y33931D01*
G01X54416Y35361D02*
G01X53873Y33931D01*
G01X54416Y35361D02*
G01X54963Y33931D01*
G01X54076Y34409D02*
G01X54759Y34409D01*
G01X55890Y35361D02*
G01X55890Y33931D01*
G01X55412Y35361D02*
G01X56367Y35361D01*
G01X53472Y32481D02*
G01X53403Y32616D01*
G01X53268Y32753D01*
G01X53131Y32822D01*
G01X52859Y32822D01*
G01X52722Y32753D01*
G01X52585Y32616D01*
G01X52519Y32481D01*
G01X52451Y32275D01*
G01X52451Y31935D01*
G01X52519Y31729D01*
G01X52585Y31595D01*
G01X52722Y31458D01*
G01X52859Y31389D01*
G01X53131Y31389D01*
G01X53268Y31458D01*
G01X53403Y31595D01*
G01X53472Y31729D01*
G01X53472Y31935D01*
G01X53131Y31935D02*
G01X53472Y31935D01*
G01X53921Y32822D02*
G01X53921Y31389D01*
G01X53921Y32822D02*
G01X54876Y31389D01*
G01X54876Y32822D02*
G01X54876Y31389D01*
G01X55326Y32822D02*
G01X55326Y31389D01*
G01X55326Y32822D02*
G01X55803Y32822D01*
G01X56009Y32753D01*
G01X56146Y32616D01*
G01X56212Y32481D01*
G01X56281Y32275D01*
G01X56281Y31935D01*
G01X56212Y31729D01*
G01X56146Y31595D01*
G01X56009Y31458D01*
G01X55803Y31389D01*
G01X55326Y31389D01*
G54D23*
G01X51943Y8437D02*
G01X51943Y7769D01*
G01X51943Y8120D02*
G01X52006Y8183D01*
G01X52070Y8214D01*
G01X52166Y8214D01*
G01X52230Y8183D01*
G01X52293Y8120D01*
G01X52324Y8023D01*
G01X52324Y7960D01*
G01X52293Y7863D01*
G01X52230Y7800D01*
G01X52166Y7769D01*
G01X52070Y7769D01*
G01X52006Y7800D01*
G01X51943Y7863D01*
G01X52567Y8214D02*
G01X52758Y7769D01*
G01X52948Y8214D02*
G01X52758Y7769D01*
G01X52694Y7642D01*
G01X52631Y7579D01*
G01X52567Y7546D01*
G01X52534Y7546D01*
G01X53647Y8437D02*
G01X53647Y7769D01*
G01X53647Y8437D02*
G01X54061Y8437D01*
G01X53647Y8120D02*
G01X53903Y8120D01*
G01X53647Y7769D02*
G01X54061Y7769D01*
G01X54622Y8214D02*
G01X54272Y7769D01*
G01X54272Y8214D02*
G01X54622Y8214D01*
G01X54272Y7769D02*
G01X54622Y7769D01*
G01X54830Y8437D02*
G01X54830Y7769D01*
G01X54830Y8437D02*
G01X55118Y8437D01*
G01X55214Y8404D01*
G01X55245Y8374D01*
G01X55278Y8310D01*
G01X55278Y8247D01*
G01X55245Y8183D01*
G01X55214Y8150D01*
G01X55118Y8120D01*
G01X54830Y8120D01*
G01X55054Y8120D02*
G01X55278Y7769D01*
G01X55646Y8214D02*
G01X55582Y8183D01*
G01X55519Y8120D01*
G01X55488Y8023D01*
G01X55488Y7960D01*
G01X55519Y7863D01*
G01X55582Y7800D01*
G01X55646Y7769D01*
G01X55742Y7769D01*
G01X55806Y7800D01*
G01X55869Y7863D01*
G01X55900Y7960D01*
G01X55900Y8023D01*
G01X55869Y8120D01*
G01X55806Y8183D01*
G01X55742Y8214D01*
G01X55646Y8214D01*
G01X56588Y8277D02*
G01X56555Y8341D01*
G01X56492Y8404D01*
G01X56428Y8437D01*
G01X56301Y8437D01*
G01X56238Y8404D01*
G01X56174Y8341D01*
G01X56144Y8277D01*
G01X56111Y8183D01*
G01X56111Y8023D01*
G01X56144Y7927D01*
G01X56174Y7863D01*
G01X56238Y7800D01*
G01X56301Y7769D01*
G01X56428Y7769D01*
G01X56492Y7800D01*
G01X56555Y7863D01*
G01X56588Y7927D01*
G01X56799Y8437D02*
G01X56799Y7769D01*
G01X56799Y8087D02*
G01X56893Y8183D01*
G01X56956Y8214D01*
G01X57053Y8214D01*
G01X57116Y8183D01*
G01X57147Y8087D01*
G01X57147Y7769D01*
G54D24*
G01X32766Y54145D02*
G01X32766Y53368D01*
G01X32816Y53210D01*
G01X32920Y53106D01*
G01X33078Y53055D01*
G01X33182Y53055D01*
G01X33337Y53106D01*
G01X33441Y53210D01*
G01X33492Y53368D01*
G01X33492Y54145D01*
G01X34510Y53782D02*
G01X34460Y53627D01*
G01X34356Y53523D01*
G01X34201Y53472D01*
G01X34147Y53472D01*
G01X33992Y53523D01*
G01X33888Y53627D01*
G01X33835Y53782D01*
G01X33835Y53835D01*
G01X33888Y53990D01*
G01X33992Y54094D01*
G01X34147Y54145D01*
G01X34201Y54145D01*
G01X34356Y54094D01*
G01X34460Y53990D01*
G01X34510Y53782D01*
G01X34510Y53523D01*
G01X34460Y53263D01*
G01X34356Y53106D01*
G01X34201Y53055D01*
G01X34096Y53055D01*
G01X33939Y53106D01*
G01X33888Y53210D01*
G54D20*
G01X67828Y15550D02*
G01X67048Y15550D01*
G01X66893Y15499D01*
G01X66789Y15395D01*
G01X66738Y15237D01*
G01X66738Y15133D01*
G01X66789Y14978D01*
G01X66893Y14874D01*
G01X67048Y14823D01*
G01X67828Y14823D01*
G01X67828Y13855D02*
G01X67828Y14376D01*
G01X67360Y14427D01*
G01X67411Y14376D01*
G01X67464Y14219D01*
G01X67464Y14064D01*
G01X67411Y13909D01*
G01X67310Y13805D01*
G01X67152Y13751D01*
G01X67048Y13751D01*
G01X66893Y13805D01*
G01X66789Y13909D01*
G01X66738Y14064D01*
G01X66738Y14219D01*
G01X66789Y14376D01*
G01X66840Y14427D01*
G01X66944Y14480D01*
G01X28331Y44633D02*
G01X27551Y44633D01*
G01X27396Y44582D01*
G01X27292Y44478D01*
G01X27241Y44320D01*
G01X27241Y44216D01*
G01X27292Y44061D01*
G01X27396Y43957D01*
G01X27551Y43906D01*
G01X28331Y43906D01*
G01X28176Y42938D02*
G01X28280Y42992D01*
G01X28331Y43147D01*
G01X28331Y43251D01*
G01X28280Y43406D01*
G01X28122Y43510D01*
G01X27863Y43563D01*
G01X27604Y43563D01*
G01X27396Y43510D01*
G01X27292Y43406D01*
G01X27241Y43251D01*
G01X27241Y43197D01*
G01X27292Y43042D01*
G01X27396Y42938D01*
G01X27551Y42888D01*
G01X27604Y42888D01*
G01X27759Y42938D01*
G01X27863Y43042D01*
G01X27914Y43197D01*
G01X27914Y43251D01*
G01X27863Y43406D01*
G01X27759Y43510D01*
G01X27604Y43563D01*
G54D22*
G01X19580Y52253D02*
G01X19489Y52207D01*
G01X19395Y52115D01*
G01X19349Y52024D01*
G01X19309Y51889D01*
G01X19309Y51661D01*
G01X19349Y51524D01*
G01X19395Y51435D01*
G01X19489Y51343D01*
G01X19580Y51297D01*
G01X19758Y51297D01*
G01X19850Y51343D01*
G01X19946Y51435D01*
G01X19984Y51524D01*
G01X20030Y51661D01*
G01X20030Y51889D01*
G01X19984Y52024D01*
G01X19946Y52115D01*
G01X19850Y52207D01*
G01X19758Y52253D01*
G01X19580Y52253D01*
G01X20330Y52253D02*
G01X20330Y51569D01*
G01X20378Y51435D01*
G01X20469Y51343D01*
G01X20604Y51297D01*
G01X20695Y51297D01*
G01X20835Y51343D01*
G01X20921Y51435D01*
G01X20967Y51569D01*
G01X20967Y52253D01*
G01X21584Y52253D02*
G01X21584Y51297D01*
G01X21267Y52253D02*
G01X21904Y52253D01*
G01X22616Y52115D02*
G01X22616Y51297D01*
G01X22204Y51706D02*
G01X23025Y51706D01*
G01X21376Y48836D02*
G01X21376Y47881D01*
G01X21376Y48836D02*
G01X21777Y48836D01*
G01X21920Y48790D01*
G01X21965Y48745D01*
G01X22014Y48653D01*
G01X22014Y48562D01*
G01X21965Y48473D01*
G01X21920Y48427D01*
G01X21777Y48382D01*
G01X21376Y48382D02*
G01X21777Y48382D01*
G01X21920Y48336D01*
G01X21965Y48290D01*
G01X22014Y48199D01*
G01X22014Y48064D01*
G01X21965Y47973D01*
G01X21920Y47927D01*
G01X21777Y47881D01*
G01X21376Y47881D01*
G01X22715Y48699D02*
G01X22715Y47881D01*
G01X22313Y48290D02*
G01X23126Y48290D01*
G01X21369Y41374D02*
G01X21369Y40416D01*
G01X21369Y41374D02*
G01X21775Y41374D01*
G01X21915Y41328D01*
G01X21960Y41280D01*
G01X22006Y41188D01*
G01X22006Y41099D01*
G01X21960Y41010D01*
G01X21915Y40962D01*
G01X21775Y40916D01*
G01X21369Y40916D02*
G01X21775Y40916D01*
G01X21915Y40871D01*
G01X21960Y40828D01*
G01X22006Y40734D01*
G01X22006Y40599D01*
G01X21960Y40510D01*
G01X21915Y40464D01*
G01X21775Y40416D01*
G01X21369Y40416D01*
G01X22306Y40828D02*
G01X23124Y40828D01*
G01X19578Y38283D02*
G01X19497Y38237D01*
G01X19403Y38145D01*
G01X19354Y38054D01*
G01X19309Y37919D01*
G01X19309Y37691D01*
G01X19354Y37554D01*
G01X19403Y37465D01*
G01X19497Y37373D01*
G01X19578Y37327D01*
G01X19766Y37327D01*
G01X19852Y37373D01*
G01X19944Y37465D01*
G01X19989Y37554D01*
G01X20038Y37691D01*
G01X20038Y37919D01*
G01X19989Y38054D01*
G01X19944Y38145D01*
G01X19852Y38237D01*
G01X19766Y38283D01*
G01X19578Y38283D01*
G01X20337Y38283D02*
G01X20337Y37599D01*
G01X20386Y37465D01*
G01X20469Y37373D01*
G01X20609Y37327D01*
G01X20703Y37327D01*
G01X20833Y37373D01*
G01X20927Y37465D01*
G01X20975Y37599D01*
G01X20975Y38283D01*
G01X21592Y38283D02*
G01X21592Y37327D01*
G01X21275Y38283D02*
G01X21912Y38283D01*
G01X22212Y37736D02*
G01X23025Y37736D01*
G01X3048Y52037D02*
G01X3048Y51082D01*
G01X3347Y52037D02*
G01X3347Y51082D01*
G01X3347Y52037D02*
G01X3985Y51082D01*
G01X3985Y52037D02*
G01X3985Y51082D01*
G01X4693Y51899D02*
G01X4693Y51082D01*
G01X4284Y51491D02*
G01X5102Y51491D01*
G01X3048Y38067D02*
G01X3048Y37112D01*
G01X3347Y38067D02*
G01X3347Y37112D01*
G01X3347Y38067D02*
G01X3985Y37112D01*
G01X3985Y38067D02*
G01X3985Y37112D01*
G01X4284Y37521D02*
G01X5102Y37521D01*
G01X14516Y47109D02*
G01X13561Y47109D01*
G01X14516Y47427D02*
G01X14516Y46789D01*
G01X14516Y46489D02*
G01X13561Y46489D01*
G01X14516Y46489D02*
G01X14516Y46080D01*
G01X14470Y45946D01*
G01X14424Y45900D01*
G01X14333Y45854D01*
G01X14196Y45854D01*
G01X14107Y45900D01*
G01X14061Y45946D01*
G01X14015Y46080D01*
G01X14015Y46489D01*
G01X14516Y45100D02*
G01X13878Y45555D01*
G01X13878Y44871D01*
G01X14516Y45100D02*
G01X13561Y45100D01*
G01X14516Y44300D02*
G01X14470Y44434D01*
G01X14333Y44526D01*
G01X14107Y44572D01*
G01X13970Y44572D01*
G01X13743Y44526D01*
G01X13606Y44434D01*
G01X13561Y44300D01*
G01X13561Y44208D01*
G01X13606Y44071D01*
G01X13743Y43982D01*
G01X13970Y43937D01*
G01X14107Y43937D01*
G01X14333Y43982D01*
G01X14470Y44071D01*
G01X14516Y44208D01*
G01X14516Y44300D01*
G01X14516Y43091D02*
G01X14516Y43545D01*
G01X14107Y43591D01*
G01X14152Y43545D01*
G01X14196Y43408D01*
G01X14196Y43271D01*
G01X14152Y43136D01*
G01X14061Y43045D01*
G01X13924Y42999D01*
G01X13832Y42999D01*
G01X13698Y43045D01*
G01X13606Y43136D01*
G01X13561Y43271D01*
G01X13561Y43408D01*
G01X13606Y43545D01*
G01X13652Y43591D01*
G01X13743Y43637D01*
G01X14378Y42153D02*
G01X14470Y42199D01*
G01X14516Y42336D01*
G01X14516Y42425D01*
G01X14470Y42562D01*
G01X14333Y42654D01*
G01X14107Y42700D01*
G01X13878Y42700D01*
G01X13698Y42654D01*
G01X13606Y42562D01*
G01X13561Y42425D01*
G01X13561Y42382D01*
G01X13606Y42245D01*
G01X13698Y42153D01*
G01X13832Y42108D01*
G01X13878Y42108D01*
G01X14015Y42153D01*
G01X14107Y42245D01*
G01X14152Y42382D01*
G01X14152Y42425D01*
G01X14107Y42562D01*
G01X14015Y42654D01*
G01X13878Y42700D01*
G54D10*
G75*
G01X-1003Y47676D02*
G03X-1252Y47475I-13J-238D01*
G01*
G75*
G01X-1252Y41925D02*
G03X-1054Y41676I238J-13D01*
G01*
M00*
M02*
