;Layer: Drill PTH
;EasyEDA v6.3.22, 2020-03-18T10:30:20--5:00
;98182c42750f413f95cb83c886c9a14c,0f239cf58a554773a8b80eeb1c5c5983,10
;Gerber Generator version 0.2
M48
METRIC,LZ,000.000
;Holesize 1 = 0.800 METRIC
T01C0.800
;Holesize 2 = 1.000 METRIC
T02C1.000
;Holesize 3 = 3.200 METRIC
T03C3.200
%
G05
G90
T01
X+010160Y+024440
X+014859Y+021900
X+018796Y+024440
X+021971Y+021900
T02
X+025379Y+028020
X+022839Y+028020
X+020299Y+028020
X+017759Y+028020
X+015219Y+028020
X+012679Y+028020
X+010139Y+028020
X+007599Y+028020
X+005059Y+028020
X+025379Y+002520
X+022839Y+002520
X+020299Y+002520
X+017759Y+002520
X+015219Y+002520
X+063627Y+029520
X+063627Y+026980
X+063627Y+024440
X+039878Y+011740
X+039878Y+014280
X+039878Y+016820
X+039878Y+019360
X+039878Y+021900
X+039878Y+024440
X+039878Y+026980
X+039878Y+029520
X+039878Y+032060
X+039878Y+034600
X+039878Y+037140
X+039878Y+039680
X+057658Y+011740
X+057658Y+014280
X+057658Y+016820
X+057658Y+019360
X+057658Y+021900
X+057658Y+024440
X+057658Y+026980
X+057658Y+029520
X+057658Y+032060
X+057658Y+034600
X+057658Y+037140
X+057658Y+039680
X+031496Y+049205
X+034036Y+049205
X+063627Y+019360
X+063627Y+016820
X+063627Y+014280
X+063627Y+011740
X+001529Y+051706
X+001529Y+037736
X+024389Y+051706
X+024389Y+037736
X+024389Y+049166
X+024389Y+040276
T03
X+003650Y+003649
X+066349Y+003649
X+066349Y+056350
X+003650Y+056350
M30
